<svg id="Layer_1" data-name="Layer 1" xmlns="http://www.w3.org/2000/svg" xmlns:xlink="http://www.w3.org/1999/xlink" viewBox="0 0 254.84 34.2"><defs><style>.cls-1,.cls-2{fill:#fff;}.cls-2{isolation:isolate;opacity:0.01;}.cls-3{fill:url(#linear-gradient);}.cls-4{fill:url(#linear-gradient-2);}.cls-5{fill:url(#linear-gradient-3);}.cls-6{fill:url(#linear-gradient-4);}.cls-7{fill:url(#linear-gradient-5);}.cls-8{fill:#ff5f00;}.cls-9{fill:#eb001b;}.cls-10{fill:#f79e1b;}.cls-11{mask:url(#mask);}.cls-12{fill:#1a1f71;}.cls-12,.cls-16,.cls-17,.cls-18{fill-rule:evenodd;}.cls-13,.cls-16{fill:#085ca8;}.cls-14,.cls-17{fill:#eb2227;}.cls-15{fill:#099dd9;}.cls-18{fill:#052e5c;}.cls-19{fill:#0b74e5;}</style><linearGradient id="linear-gradient" x1="243.3" y1="18.33" x2="250.87" y2="18.33" gradientTransform="matrix(1, 0, 0, -1, 0, 37)" gradientUnits="userSpaceOnUse"><stop offset="0" stop-color="#007940"/><stop offset="0.23" stop-color="#00873f"/><stop offset="0.74" stop-color="#40a737"/><stop offset="1" stop-color="#5cb531"/></linearGradient><linearGradient id="linear-gradient-2" x1="243.3" y1="19.5" x2="250.87" y2="19.5" xlink:href="#linear-gradient"/><linearGradient id="linear-gradient-3" x1="243.3" y1="20.79" x2="250.87" y2="20.79" xlink:href="#linear-gradient"/><linearGradient id="linear-gradient-4" x1="226.33" y1="19.51" x2="234.03" y2="19.51" gradientTransform="matrix(1, 0, 0, -1, 0, 37)" gradientUnits="userSpaceOnUse"><stop offset="0" stop-color="#1f286f"/><stop offset="0.48" stop-color="#004e94"/><stop offset="0.83" stop-color="#0066b1"/><stop offset="1" stop-color="#006fbc"/></linearGradient><linearGradient id="linear-gradient-5" x1="234.77" y1="19.5" x2="242.25" y2="19.5" gradientTransform="matrix(1, 0, 0, -1, 0, 37)" gradientUnits="userSpaceOnUse"><stop offset="0" stop-color="#6c2c2f"/><stop offset="0.17" stop-color="#882730"/><stop offset="0.57" stop-color="#be1833"/><stop offset="0.86" stop-color="#dc0436"/><stop offset="1" stop-color="#e60039"/></linearGradient><mask id="mask" x="132.16" y="4.53" width="37.19" height="25.13" maskUnits="userSpaceOnUse"><g transform="translate(0 -0.4)"><g id="mask0_1329:61134" data-name="mask0 1329:61134"><rect class="cls-1" x="133.25" y="7.12" width="34.96" height="21.85" rx="1.99"/></g></g></mask></defs><rect class="cls-2" x="222.59" y="6.35" width="32.26" height="21.5"/><path class="cls-1" d="M252.39,23.83a4.29,4.29,0,0,1-4.29,4.28H224.8v-17a4.29,4.29,0,0,1,4.29-4.28h23.3Z" transform="translate(0 -0.4)"/><path class="cls-3" d="M244.8,19.48h1.77l.22,0a.78.78,0,0,0,.62-.79.82.82,0,0,0-.62-.8h-2Z" transform="translate(0 -0.4)"/><path class="cls-4" d="M246.37,8.3a3.06,3.06,0,0,0-3.07,3.07v3.18h4.33a1.42,1.42,0,0,1,.3,0c1,0,1.71.56,1.71,1.43a1.44,1.44,0,0,1-1.4,1.4v0c1,.06,1.75.62,1.75,1.48s-.84,1.53-2,1.53h-4.76v6.24h4.5a3.06,3.06,0,0,0,3.07-3.07V8.3Z" transform="translate(0 -0.4)"/><path class="cls-5" d="M247.19,16.21a.71.71,0,0,0-.62-.73l-.17,0h-1.6V17h1.6a.42.42,0,0,0,.17,0A.71.71,0,0,0,247.19,16.21Z" transform="translate(0 -0.4)"/><path class="cls-6" d="M229.41,8.3a3.06,3.06,0,0,0-3.07,3.07v7.57a6.08,6.08,0,0,0,2.65.69,1.47,1.47,0,0,0,1.63-1.52V14.54h2.63v3.55c0,1.39-.86,2.52-3.78,2.52a12.84,12.84,0,0,1-3.15-.39v6.46h4.5a3.07,3.07,0,0,0,3.07-3.07V8.3Z" transform="translate(0 -0.4)"/><path class="cls-7" d="M237.89,8.3a3.06,3.06,0,0,0-3.07,3.07v4c.77-.66,2.12-1.08,4.3-1a13.71,13.71,0,0,1,2.41.37v1.3a5.78,5.78,0,0,0-2.33-.67c-1.65-.12-2.64.69-2.64,2.1s1,2.25,2.64,2.11a6.3,6.3,0,0,0,2.33-.67v1.29a12.88,12.88,0,0,1-2.41.38c-2.18.1-3.53-.32-4.3-1v7.08h4.5a3.07,3.07,0,0,0,3.07-3.07V8.3Z" transform="translate(0 -0.4)"/><rect class="cls-2" x="179.36" y="6.03" width="33.21" height="22.14"/><rect class="cls-8" x="191.97" y="9.94" width="7.95" height="14.31"/><path class="cls-9" d="M192.47,17.5a9.1,9.1,0,0,1,3.47-7.15,9.09,9.09,0,1,0,0,14.3A9.1,9.1,0,0,1,192.47,17.5Z" transform="translate(0 -0.4)"/><path class="cls-10" d="M210.64,17.5a9.08,9.08,0,0,1-14.7,7.15,9.09,9.09,0,0,0,0-14.3,9.08,9.08,0,0,1,14.7,7.15Z" transform="translate(0 -0.4)"/><g class="cls-11"><rect class="cls-2" x="132.16" y="4.53" width="37.19" height="25.13"/><path class="cls-12" d="M144,12.25l-2.78,7.12-1.12-6.06a1.25,1.25,0,0,0-1.23-1.06h-4.55l-.06.3a11.39,11.39,0,0,1,2.63.89,1.15,1.15,0,0,1,.64.92l2.13,8.35h2.82l4.33-10.46Zm4,0-2.21,10.46h2.67l2.21-10.46Zm15.31,2.82.81,3.93h-2.22Zm-.39-2.82a1.23,1.23,0,0,0-1.14.76l-4,9.7h2.8l.56-1.56h3.42l.33,1.56h2.47l-2.16-10.46Zm-11.52,3.26c0,1.51,1.32,2.35,2.33,2.85s1.39.84,1.39,1.3c0,.71-.83,1-1.6,1a5.57,5.57,0,0,1-2.74-.66l-.49,2.29a8.19,8.19,0,0,0,3,.56c2.81,0,4.64-1.41,4.65-3.58,0-2.77-3.76-2.92-3.74-4.15,0-.38.36-.78,1.13-.88a5,5,0,0,1,2.64.47l.47-2.22a7.06,7.06,0,0,0-2.5-.46C153.2,12.06,151.34,13.48,151.33,15.51Z" transform="translate(0 -0.4)"/></g><path class="cls-13" d="M105.77,6.8,103.9,8.67l-.09.09-.6.6-.44.44-.59.6-.1.09-.26.26-.09.09h0l-.87.88h0l-.1.09a3.42,3.42,0,0,1-.86.65,3,3,0,0,1-.48.22,3.63,3.63,0,0,1-1.13.25,3.35,3.35,0,0,1-.71,0,3.66,3.66,0,0,1-1.46-.49,2.17,2.17,0,0,1-.56-.39h0l-.1-.11L92,8.52,92,8.44a1.16,1.16,0,0,1-.16-.21,1.25,1.25,0,0,1-.18-.65.37.37,0,0,1,0-.11.78.78,0,0,1,0-.16s0,0,0-.06v0a1.4,1.4,0,0,1,.24-.45l.09-.1.06-.06L95.7,3h0L97.9.79A1.31,1.31,0,0,1,99.68.72l6.09,6.08Z" transform="translate(0 -0.4)"/><path class="cls-14" d="M99.15,15a2.19,2.19,0,0,1-.86-.19l-.69-.7-.17-.17,0,0-.33-.32-1.62-1.64.11.11a2.44,2.44,0,0,0,.56.39,3.83,3.83,0,0,0,1.46.49,4.21,4.21,0,0,0,.71,0,3.94,3.94,0,0,0,1.13-.25,3.51,3.51,0,0,0,.48-.22,4.14,4.14,0,0,0,.86-.65l.1-.09h0l.87-.87h0l.1-.09.26-.26.09-.1.59-.59.45-.44.59-.6.09-.09,3.77-3.77,1.56-1.68h0l.09-.09a1.23,1.23,0,0,1,1.72,0l.85.86h0l0,0a1.41,1.41,0,0,0-1,.4L108,7.23l0,0-5,4.93h0L101.1,14v0l-.11.11a3.23,3.23,0,0,1-.85.6,2.47,2.47,0,0,1-.56.19,1.86,1.86,0,0,1-.33,0h-.09Z" transform="translate(0 -0.4)"/><path class="cls-14" d="M116.49,10.31l-.09.09-4.08,4.14L108,18.89a5.08,5.08,0,0,1-.43.38h0l-.06,0h0a3.94,3.94,0,0,1-5-.35h0l-.1-.09-.73-.74L99.6,16.08l-.69-.69-.1-.1a2,2,0,0,0,.34,0h.1a2.6,2.6,0,0,0,.39-.05,2.66,2.66,0,0,0,.64-.21,3.92,3.92,0,0,0,1-.67l.13-.14L103,12.69h0l5.47-5.39,0,0,2.66-2.61a1.06,1.06,0,0,1,1.33-.12l.63.63h0l3.42,3.42a.39.39,0,0,1,.08.1,1.2,1.2,0,0,1-.09,1.62Z" transform="translate(0 -0.4)"/><path class="cls-15" d="M103.28,5.77a.25.25,0,0,1-.36,0A4.15,4.15,0,1,0,97,11.62l1.26,1.28,0,0h0a4,4,0,0,1-.69,0L96.67,12a4.65,4.65,0,1,1,6.61-6.55h0a.25.25,0,0,1,0,.35Zm1.93,1.6-.35.35-.62-.62a.25.25,0,1,1,.35-.35Z" transform="translate(0 -0.4)"/><path class="cls-15" d="M99.91,12.45h0l-.46.22-1.72-1.74a3.17,3.17,0,0,1-.37-4,.25.25,0,1,1,.41.28,2.68,2.68,0,0,0,.31,3.41Zm4.26-4h0l-.26.26-.08.08L101.88,6.8a2.7,2.7,0,0,0-2.74-.66A.25.25,0,0,1,99,5.67a3.18,3.18,0,0,1,3.24.78Z" transform="translate(0 -0.4)"/><path class="cls-15" d="M103.13,9.44l-.35.35-1.94-1.95a1.22,1.22,0,1,0-1.73,1.72l1.25,1.26a.26.26,0,0,1,0,.35.24.24,0,0,1-.35,0L98.75,9.91a1.72,1.72,0,0,1,2.44-2.42Z" transform="translate(0 -0.4)"/><path class="cls-15" d="M102.09,10.48h0l-.26.26-.09.08-1.94-2a.25.25,0,1,1,.35-.35Z" transform="translate(0 -0.4)"/><path class="cls-15" d="M94.23,33.25a.73.73,0,0,0,.41-.09.48.48,0,0,0,.18-.3.25.25,0,0,0,0-.21.65.65,0,0,0-.24-.21l-.49-.34a1,1,0,0,1-.26-.24.56.56,0,0,1-.1-.26,1,1,0,0,1,.39-.89,1.39,1.39,0,0,1,.85-.22,1.84,1.84,0,0,1,.41.05.72.72,0,0,1,.29.12.18.18,0,0,1,.07.05s0,0,0,.06l-.07.3q0,.11-.12.06a1.9,1.9,0,0,0-.32-.09,2.73,2.73,0,0,0-.38,0q-.45,0-.51.3a.19.19,0,0,0,0,.18.93.93,0,0,0,.24.2L95,32a1.35,1.35,0,0,1,.3.27.8.8,0,0,1,.12.27,1.27,1.27,0,0,1,0,.33,1,1,0,0,1-.2.44,1.23,1.23,0,0,1-.43.34,1.94,1.94,0,0,1-1.15.06,1.22,1.22,0,0,1-.28-.11.14.14,0,0,1-.07-.06s0,0,0-.06l.06-.29c0-.06,0-.09.12-.06a2.31,2.31,0,0,0,.74.13Zm2.45,0a1.91,1.91,0,0,0,.58-.1c.07,0,.09,0,.08.07l-.06.28a.09.09,0,0,1,0,.06.12.12,0,0,1-.08,0,1.18,1.18,0,0,1-.58.13,1.07,1.07,0,0,1-.49-.11.57.57,0,0,1-.27-.35,1.16,1.16,0,0,1,0-.59l.08-.4a1.59,1.59,0,0,1,.25-.59,1.11,1.11,0,0,1,.43-.35,1.32,1.32,0,0,1,.53-.11,1,1,0,0,1,.53.12s0,0,.06.05a.13.13,0,0,1,0,.06l-.06.28c0,.06-.05.09-.11.07l-.24-.07a1,1,0,0,0-.27,0c-.29,0-.48.19-.56.57l-.09.4a.57.57,0,0,0,0,.43A.32.32,0,0,0,96.68,33.28Zm2.26-1.54a2.61,2.61,0,0,0-.71.11c-.07,0-.09,0-.08-.06l.06-.27a.07.07,0,0,1,0-.06.16.16,0,0,1,.08-.05,2.14,2.14,0,0,1,.35-.1,2.06,2.06,0,0,1,.44,0,1,1,0,0,1,.45.09.49.49,0,0,1,.25.28.84.84,0,0,1,0,.45l-.32,1.47a.1.1,0,0,1,0,.07l-.06,0-.38.08a3,3,0,0,1-.45,0,1.62,1.62,0,0,1-.56-.08.46.46,0,0,1-.29-.23.71.71,0,0,1,0-.42v0a1.19,1.19,0,0,1,.12-.32.8.8,0,0,1,.22-.23,1.11,1.11,0,0,1,.35-.14,2.14,2.14,0,0,1,.48,0h.31l0-.18c0-.14,0-.23,0-.28a.41.41,0,0,0-.28-.08Zm0,1.56.13-.64h-.3a.8.8,0,0,0-.3,0,.3.3,0,0,0-.14.1.71.71,0,0,0-.08.21v0a.3.3,0,0,0,0,.19.17.17,0,0,0,.11.09.91.91,0,0,0,.27,0,1.37,1.37,0,0,0,.31,0Zm3,.34a.11.11,0,0,1,0,.07l-.07,0h-.4l0,0a.1.1,0,0,1,0-.07l.31-1.42a1,1,0,0,0,0-.28.22.22,0,0,0-.11-.14.52.52,0,0,0-.25-.05,2.37,2.37,0,0,0-.43.05l-.39,1.84a.16.16,0,0,1,0,.07l-.07,0H100l0,0a.09.09,0,0,1,0-.07l.46-2.16s0-.07.1-.08l.48-.1.47,0a.89.89,0,0,1,.7.22.85.85,0,0,1,.09.72L102,33.64Zm3,0a.11.11,0,0,1-.1.08l-.34,0a1.09,1.09,0,0,1-.4-.06.27.27,0,0,1-.17-.2,1.14,1.14,0,0,1,0-.43l.28-1.36-.34-.06c-.06,0-.08,0-.07-.08l0-.2a.21.21,0,0,1,0-.06.09.09,0,0,1,.07,0h.35l.08-.35c0-.05,0-.08.11-.09l.41-.07h0a.05.05,0,0,1,0,.07l-.09.44h.43a.06.06,0,0,1,.06,0,.06.06,0,0,1,0,.06l-.05.26,0,.06-.07,0h-.43l-.29,1.36a.56.56,0,0,0,0,.2s.06,0,.13,0h.28c.06,0,.09,0,.08.06l-.06.28Zm2.52-1a1.54,1.54,0,0,1-.23.56,1.24,1.24,0,0,1-.44.38,1.25,1.25,0,0,1-.59.14,1,1,0,0,1-.53-.14.62.62,0,0,1-.27-.38,1.06,1.06,0,0,1,0-.56l.07-.35a1.36,1.36,0,0,1,.24-.55,1.21,1.21,0,0,1,.43-.38,1.17,1.17,0,0,1,.59-.14.85.85,0,0,1,.53.14.59.59,0,0,1,.27.38,1,1,0,0,1,0,.55Zm-.57,0,.08-.35a.57.57,0,0,0,0-.42.32.32,0,0,0-.31-.16.49.49,0,0,0-.38.16.83.83,0,0,0-.21.42l-.07.35a.6.6,0,0,0,0,.43.33.33,0,0,0,.31.16.52.52,0,0,0,.37-.16.76.76,0,0,0,.21-.43Zm4.58-1.17a1.1,1.1,0,0,1-.51.78,1.79,1.79,0,0,1-1,.24h-.38l-.23,1.12a.16.16,0,0,1,0,.07l-.06,0h-.44l0,0a.06.06,0,0,1,0-.07l.63-3a.11.11,0,0,1,0-.09.35.35,0,0,1,.11,0,5.43,5.43,0,0,1,.86-.06,1.39,1.39,0,0,1,.85.23.7.7,0,0,1,.18.76v0Zm-.6,0v0a.38.38,0,0,0-.07-.39.72.72,0,0,0-.47-.12L110,31l-.22,1h.38a1.35,1.35,0,0,0,.38-.05.65.65,0,0,0,.25-.17.68.68,0,0,0,.12-.3Zm1.54.22a2.67,2.67,0,0,0-.71.11c-.06,0-.09,0-.08-.06l.06-.27a.11.11,0,0,1,0-.06.19.19,0,0,1,.09-.05,2,2,0,0,1,.34-.1,2.06,2.06,0,0,1,.44,0,1,1,0,0,1,.46.09.45.45,0,0,1,.24.28.84.84,0,0,1,0,.45L113,33.56a.15.15,0,0,1,0,.07l0,0-.39.08a2.9,2.9,0,0,1-.45,0,1.66,1.66,0,0,1-.56-.08.42.42,0,0,1-.28-.23.64.64,0,0,1,0-.42v0a1.19,1.19,0,0,1,.12-.32.72.72,0,0,1,.23-.23,1,1,0,0,1,.34-.14,2.24,2.24,0,0,1,.49,0h.3l0-.18c0-.14,0-.23,0-.28a.39.39,0,0,0-.28-.08Zm0,1.56.14-.64h-.31a.71.71,0,0,0-.29,0,.28.28,0,0,0-.15.1.73.73,0,0,0-.07.21v0a.3.3,0,0,0,0,.19.17.17,0,0,0,.11.09.91.91,0,0,0,.27,0,1.3,1.3,0,0,0,.31,0ZM116,31.37a0,0,0,0,1,0,0l-1.26,2.52a2,2,0,0,1-.24.4,1,1,0,0,1-.31.21,1.5,1.5,0,0,1-.47.07l-.24,0-.2,0c-.06,0-.09,0-.08-.07l.06-.28a.05.05,0,0,1,0,0,.09.09,0,0,1,.06,0h0l.24,0h.24l.17,0a.47.47,0,0,0,.12-.09.45.45,0,0,0,.11-.17l.06-.13h-.06a.34.34,0,0,1-.14,0,.24.24,0,0,1-.1-.1.64.64,0,0,1-.06-.23l-.14-2s0,0,0,0,0-.07.1-.07h.43l0,0a.11.11,0,0,1,0,.06l.06,1.75c0,.07,0,.1,0,.1h0l.86-1.86a.1.1,0,0,1,.1-.07h.44l0,0a0,0,0,0,1,0,.05Z" transform="translate(0 -0.4)"/><path class="cls-16" d="M111.76,26.38l-2.26-3.23-.23-.21h2.22L113,25.38l.12-.1.91-1.35a.7.7,0,0,0-.12-1H116l-2.43,3.44v2.5l.43.51H111.4l.36-.5c0-.83,0-1.67,0-2.51Zm-6.14-3.44a.92.92,0,0,1,.26.55.82.82,0,0,1,0,.38l-1.68,4.87a1.83,1.83,0,0,1-.47.64h1.83a.77.77,0,0,1-.26-.44.87.87,0,0,1,0-.36l.37-1.16h2.14l.33.89a1.4,1.4,0,0,1,.06.28.86.86,0,0,1-.34.81h2.87a2.68,2.68,0,0,1-.68-.84l-2.1-5.62Zm1.83,3.64h-1.52l.74-2.1Zm-7.64-3.64H103a1.75,1.75,0,0,1,1.75,1.75v.22A1.75,1.75,0,0,1,103,26.63l-.8,0a1.63,1.63,0,0,0,.83-1.72c-.06-.54-.34-1.06-.8-1.07H102v4.8a.33.33,0,0,0,.06.22,3.27,3.27,0,0,0,.29.39l.09.1H99.9a1.71,1.71,0,0,0,.11-.14,1.77,1.77,0,0,0,.19-.33.59.59,0,0,0,0-.22V23.53c0-.27-.28-.42-.44-.59Z" transform="translate(0 -0.4)"/><path class="cls-17" d="M86.33,22.91h2L90,27.74l1.42-4a.44.44,0,0,0,0-.34c-.08-.17-.17-.32-.25-.48h1.5c-.09.32-.22.68-.33,1l-1.94,5.63a3.26,3.26,0,0,1-1.57-.75,2.84,2.84,0,0,1-.63-1.14l-1.62-4.28a3,3,0,0,0-.23-.48Zm8,2.26v3.45a.34.34,0,0,0,.12.28l.39.52H93l.32-.49a.52.52,0,0,0,.12-.34V23.77l-.53-.86h2L98,27V23.74a.47.47,0,0,0-.12-.34c-.1-.16-.21-.32-.32-.48h1.89l-.4.51c-.08.11-.12.14-.12.28v5.87a2.67,2.67,0,0,1-2-1l-2.62-3.39Z" transform="translate(0 -0.4)"/><path class="cls-17" d="M115.87,24.5a1.39,1.39,0,0,1,.22-.79,1.5,1.5,0,0,1,.6-.57,2,2,0,0,1,.92-.2,1.29,1.29,0,0,1,.4,0,1.66,1.66,0,0,1,.37.16,1.39,1.39,0,0,1,.54.56,2,2,0,0,1,.16.4,2.14,2.14,0,0,1,0,.45,1.69,1.69,0,0,1-.14.68,1.67,1.67,0,0,1-.42.59l.23.22.28.24a1.86,1.86,0,0,0,.34.19,1.25,1.25,0,0,0,.39.11,1.63,1.63,0,0,1-.38.22,1.15,1.15,0,0,1-.41.08,1,1,0,0,1-.37-.08,1.7,1.7,0,0,1-.35-.19l-.32-.24-.25-.21h-.07l-.1,0h-.15a1.46,1.46,0,0,1-.79-.23,1.48,1.48,0,0,1-.55-.61,1.56,1.56,0,0,1-.15-.41,2.3,2.3,0,0,1,0-.45Zm.89,0a1.15,1.15,0,0,0,0,.31,1.56,1.56,0,0,0,.08.28,1.13,1.13,0,0,0,.27.45.6.6,0,0,0,.44.17.52.52,0,0,0,.49-.26,1.27,1.27,0,0,0,.16-.68c0-.07,0-.19,0-.34s0-.22-.06-.32a2,2,0,0,0-.1-.26.64.64,0,0,0-.27-.33.65.65,0,0,0-.4-.12.41.41,0,0,0-.19,0,.62.62,0,0,0-.17.11,1,1,0,0,0-.21.34,1.7,1.7,0,0,0-.06.46v.15Zm3.55,0a.64.64,0,0,0,.26-.1.6.6,0,0,0,.18-.21.35.35,0,0,0,0-.13.32.32,0,0,0,0-.14.56.56,0,0,0-.12-.36.42.42,0,0,0-.35-.14h0v1.08Zm0,.25v.88a.47.47,0,0,0,.2.44v0h-1.27v0a.46.46,0,0,0,.19-.44V23.53a1.19,1.19,0,0,0,0-.31.43.43,0,0,0-.16-.2h1.54a1,1,0,0,1,.47.1.74.74,0,0,1,.41.49.66.66,0,0,1,0,.25.79.79,0,0,1-.12.38.92.92,0,0,1-.44.36l.61,1a2,2,0,0,0,.4.47l-.53,0h-.27a.46.46,0,0,1-.48-.3l-.56-1.06Z" transform="translate(0 -0.4)"/><path class="cls-18" d="M76.32,10.57a3,3,0,0,0-3-3H48.51a3,3,0,0,0-3,3V24.43a3,3,0,0,0,3,3H73.36a3,3,0,0,0,3-3ZM48.51,8.71h25a1.86,1.86,0,0,1,1.71,1.86v14a1.86,1.86,0,0,1-1.86,1.7h-25a1.86,1.86,0,0,1-1.71-1.86v-14A1.86,1.86,0,0,1,48.51,8.71Z" transform="translate(0 -0.4)"/><path class="cls-18" d="M52.88,21.47l-.58,1.76H51l2.42-6.83h1.38l2.43,6.83H56l-.58-1.76Zm.29-.95h1.94l-1-2.91h0Zm7.71,2.71v-5.8h2v-1h-5.3v1h2.05v5.8Zm4-4.85v4.85h-1.1V16.4h1.41l2.09,5.21h0l2.1-5.21h1.41v6.83h-1.1V18.38h0l-2,4.85h-.83l-2-4.85Z" transform="translate(0 -0.4)"/><rect class="cls-19" x="67.53" y="10.5" width="5.5" height="3.3" rx="1.1"/><path class="cls-18" d="M2.42,6A1.76,1.76,0,0,1,4.18,7.76v.33H13c1.28,0,1.85.38,2.86,1.7l1.79,2.48h16a2,2,0,0,1,1.93,2V27a2,2,0,0,1-1.93,2H12.38a2,2,0,0,1-1.93-2V21.2H8.92a4.07,4.07,0,0,1-2.61-1.11,4.77,4.77,0,0,1-.52-.48l-.28-.3-.06-.07H4.14a1.75,1.75,0,0,1-1.72,1.4H1.76A1.76,1.76,0,0,1,0,18.88V7.76A1.76,1.76,0,0,1,1.76,6ZM4.18,18.19H6l.19.26.12.14.07.08a5.37,5.37,0,0,0,.64.62,3.28,3.28,0,0,0,1.75.85h1.72V17.23H9.76a2.84,2.84,0,0,1-2.47-1.09L7.19,16a2.82,2.82,0,0,1-.39-1.32v-.19h1a1.75,1.75,0,0,0,.25,1,1.62,1.62,0,0,0,1.45.73h2.25l1.63,1.49a2.21,2.21,0,0,0,2.19.1c.56-.27.68-.52.5-.68l-3.57-3.25V12.27h3.82L15,10.41C14.21,9.34,13.88,9.13,13,9.13H4.18ZM2.42,6.88H1.76a.88.88,0,0,0-.87.77V18.88a.89.89,0,0,0,.77.87h.77A.88.88,0,0,0,3.29,19V7.76a.89.89,0,0,0-.77-.87ZM11.5,27V17.34l1.26,1.15.19.13a3.26,3.26,0,0,0,3.12.1c1.12-.54,1.62-1.6.74-2.39l-3.3-3h20a1,1,0,0,1,1,1V27a1,1,0,0,1-1,1H12.45A1,1,0,0,1,11.5,27Z" transform="translate(0 -0.4)"/><circle class="cls-19" cx="22.99" cy="17.1" r="5.23"/><path class="cls-1" d="M24,17.33l-1.72-.41a.53.53,0,0,1-.43-.49.56.56,0,0,1,.6-.5H23.5a1.29,1.29,0,0,1,.65.18.24.24,0,0,0,.29,0l.33-.28a.18.18,0,0,0,0-.3,2.27,2.27,0,0,0-1.24-.35h0v-.59a.22.22,0,0,0-.23-.2h-.47a.22.22,0,0,0-.23.2v.59h-.1a1.4,1.4,0,0,0-1.52,1.41,1.44,1.44,0,0,0,1.17,1.13l1.64.39a.53.53,0,0,1,.43.49.55.55,0,0,1-.59.5H22.49a1.33,1.33,0,0,1-.66-.18.24.24,0,0,0-.28,0l-.34.28a.18.18,0,0,0,0,.3,2.31,2.31,0,0,0,1.25.35h0v.59a.22.22,0,0,0,.23.2h.47a.22.22,0,0,0,.23-.2v-.59h0A1.59,1.59,0,0,0,25,19,1.27,1.27,0,0,0,24,17.33Z" transform="translate(0 -0.4)"/></svg>